name ./resultDataOpenSim/trcMotMarkerGrf/sub06/grf-15-07.mot
datacolumns 19
datarows 30
range 0.52800000 0.64400000
endheader

                time	     ground_force_vx	     ground_force_vy	     ground_force_vz	     ground_force_px	     ground_force_py	     ground_force_pz	   l_ground_force_vx	   l_ground_force_vy	   l_ground_force_vz	   l_ground_force_px	   l_ground_force_py	   l_ground_force_pz	     ground_torque_x	     ground_torque_y	     ground_torque_z	   l_ground_torque_x	   l_ground_torque_y	   l_ground_torque_z	
          0.52800000	        147.85822532	        755.13954719	        -35.27601785	         -0.75259760	          0.00000000	          0.06769719	          0.00000000	          0.00000000	          0.00000000	          0.00000000	          0.00000000	          0.00000000	          0.00000000	          1.90986537	          0.00000000	          0.00000000	          0.00000000	          0.00000000	
          0.53200000	        154.76264559	        763.25091355	        -36.19729229	         -0.75214360	          0.00000000	          0.06755737	          0.00000000	          0.00000000	          0.00000000	          0.00000000	          0.00000000	          0.00000000	          0.00000000	          1.88394427	          0.00000000	          0.00000000	          0.00000000	          0.00000000	
          0.53600000	        161.77081935	        769.62578463	        -37.08237812	         -0.75163464	          0.00000000	          0.06743247	          0.00000000	          0.00000000	          0.00000000	          0.00000000	          0.00000000	          0.00000000	          0.00000000	          1.83854055	          0.00000000	          0.00000000	          0.00000000	          0.00000000	
          0.54000000	        168.95318767	        774.32844312	        -37.78781364	         -0.75116784	          0.00000000	          0.06728656	          0.00000000	          0.00000000	          0.00000000	          0.00000000	          0.00000000	          0.00000000	          0.00000000	          1.78488577	          0.00000000	          0.00000000	          0.00000000	          0.00000000	
          0.54400000	        176.31730991	        777.30232001	        -38.16154247	         -0.75078234	          0.00000000	          0.06710443	          0.00000000	          0.00000000	          0.00000000	          0.00000000	          0.00000000	          0.00000000	          0.00000000	          1.73330859	          0.00000000	          0.00000000	          0.00000000	          0.00000000	
          0.54800000	        183.79457491	        778.26678677	        -38.07710555	         -0.75042846	          0.00000000	          0.06689639	          0.00000000	          0.00000000	          0.00000000	          0.00000000	          0.00000000	          0.00000000	          0.00000000	          1.69041947	          0.00000000	          0.00000000	          0.00000000	          0.00000000	
          0.55200000	        191.27306667	        776.88150254	        -37.47185852	         -0.75003714	          0.00000000	          0.06667495	          0.00000000	          0.00000000	          0.00000000	          0.00000000	          0.00000000	          0.00000000	          0.00000000	          1.65741663	          0.00000000	          0.00000000	          0.00000000	          0.00000000	
          0.55600000	        198.64481285	        772.96549492	        -36.35853897	         -0.74959881	          0.00000000	          0.06643839	          0.00000000	          0.00000000	          0.00000000	          0.00000000	          0.00000000	          0.00000000	          0.00000000	          1.62966963	          0.00000000	          0.00000000	          0.00000000	          0.00000000	
          0.56000000	        205.82725278	        766.53066712	        -34.80674921	         -0.74917251	          0.00000000	          0.06617482	          0.00000000	          0.00000000	          0.00000000	          0.00000000	          0.00000000	          0.00000000	          0.00000000	          1.59744111	          0.00000000	          0.00000000	          0.00000000	          0.00000000	
          0.56400000	        212.74748390	        757.62411055	        -32.91647411	         -0.74882265	          0.00000000	          0.06587644	          0.00000000	          0.00000000	          0.00000000	          0.00000000	          0.00000000	          0.00000000	          0.00000000	          1.54758017	          0.00000000	          0.00000000	          0.00000000	          0.00000000	
          0.56800000	        219.31291901	        746.17672932	        -30.79793208	         -0.74855742	          0.00000000	          0.06555017	          0.00000000	          0.00000000	          0.00000000	          0.00000000	          0.00000000	          0.00000000	          0.00000000	          1.46601618	          0.00000000	          0.00000000	          0.00000000	          0.00000000	
          0.57200000	        225.40553579	        732.00198753	        -28.55120314	         -0.74834389	          0.00000000	          0.06521247	          0.00000000	          0.00000000	          0.00000000	          0.00000000	          0.00000000	          0.00000000	          0.00000000	          1.34068549	          0.00000000	          0.00000000	          0.00000000	          0.00000000	
          0.57600000	        230.90432036	        714.89055973	        -26.24411523	         -0.74816571	          0.00000000	          0.06487278	          0.00000000	          0.00000000	          0.00000000	          0.00000000	          0.00000000	          0.00000000	          0.00000000	          1.16425214	          0.00000000	          0.00000000	          0.00000000	          0.00000000	
          0.58000000	        235.69373100	        694.65970424	        -23.89274066	         -0.74805787	          0.00000000	          0.06452949	          0.00000000	          0.00000000	          0.00000000	          0.00000000	          0.00000000	          0.00000000	          0.00000000	          0.93596981	          0.00000000	          0.00000000	          0.00000000	          0.00000000	
          0.58400000	        239.62021732	        671.10393922	        -21.45141224	         -0.74808538	          0.00000000	          0.06418301	          0.00000000	          0.00000000	          0.00000000	          0.00000000	          0.00000000	          0.00000000	          0.00000000	          0.66238515	          0.00000000	          0.00000000	          0.00000000	          0.00000000	
          0.58800000	        242.42191365	        643.92552876	        -18.82686991	         -0.74827840	          0.00000000	          0.06384099	          0.00000000	          0.00000000	          0.00000000	          0.00000000	          0.00000000	          0.00000000	          0.00000000	          0.35701424	          0.00000000	          0.00000000	          0.00000000	          0.00000000	
          0.59200000	        243.69513490	        612.75220848	        -15.90953999	         -0.74861574	          0.00000000	          0.06351289	          0.00000000	          0.00000000	          0.00000000	          0.00000000	          0.00000000	          0.00000000	          0.00000000	          0.03930570	          0.00000000	          0.00000000	          0.00000000	          0.00000000	
          0.59600000	        242.92118880	        577.25634416	        -12.59829429	         -0.74905490	          0.00000000	          0.06320778	          0.00000000	          0.00000000	          0.00000000	          0.00000000	          0.00000000	          0.00000000	          0.00000000	         -0.26688347	          0.00000000	          0.00000000	          0.00000000	          0.00000000	
          0.60000000	        239.53336722	        537.29356702	         -8.82871716	         -0.74955238	          0.00000000	          0.06293319	          0.00000000	          0.00000000	          0.00000000	          0.00000000	          0.00000000	          0.00000000	          0.00000000	         -0.53523790	          0.00000000	          0.00000000	          0.00000000	          0.00000000	
          0.60400000	        232.99218773	        493.02204275	         -4.62837596	         -0.75001066	          0.00000000	          0.06271222	          0.00000000	          0.00000000	          0.00000000	          0.00000000	          0.00000000	          0.00000000	          0.00000000	         -0.73940256	          0.00000000	          0.00000000	          0.00000000	          0.00000000	
          0.60800000	        222.83873802	        445.07951080	         -0.16794567	         -0.75021721	          0.00000000	          0.06259010	          0.00000000	          0.00000000	          0.00000000	          0.00000000	          0.00000000	          0.00000000	          0.00000000	         -0.85599103	          0.00000000	          0.00000000	          0.00000000	          0.00000000	
          0.61200000	        208.77560132	        394.77716916	          4.25378004	         -0.74993825	          0.00000000	          0.06258048	          0.00000000	          0.00000000	          0.00000000	          0.00000000	          0.00000000	          0.00000000	          0.00000000	         -0.86837385	          0.00000000	          0.00000000	          0.00000000	          0.00000000	
          0.61600000	        190.83640056	        344.02999218	          8.28760543	         -0.74906368	          0.00000000	          0.06261653	          0.00000000	          0.00000000	          0.00000000	          0.00000000	          0.00000000	          0.00000000	          0.00000000	         -0.77111342	          0.00000000	          0.00000000	          0.00000000	          0.00000000	
          0.62000000	        169.52601849	        294.89766398	         11.61411424	         -0.74762453	          0.00000000	          0.06260183	          0.00000000	          0.00000000	          0.00000000	          0.00000000	          0.00000000	          0.00000000	          0.00000000	         -0.57393805	          0.00000000	          0.00000000	          0.00000000	          0.00000000	
          0.62400000	        145.78038557	        249.03088408	         13.99082038	         -0.74551918	          0.00000000	          0.06249552	          0.00000000	          0.00000000	          0.00000000	          0.00000000	          0.00000000	          0.00000000	          0.00000000	         -0.30336618	          0.00000000	          0.00000000	          0.00000000	          0.00000000	
          0.62800000	        120.81542973	        207.40512323	         15.26288657	         -0.74227446	          0.00000000	          0.06233589	          0.00000000	          0.00000000	          0.00000000	          0.00000000	          0.00000000	          0.00000000	          0.00000000	         -0.00055268	          0.00000000	          0.00000000	          0.00000000	          0.00000000	
          0.63200000	         96.01777807	        170.39957520	         15.35655506	         -0.73728464	          0.00000000	          0.06218327	          0.00000000	          0.00000000	          0.00000000	          0.00000000	          0.00000000	          0.00000000	          0.00000000	          0.28470166	          0.00000000	          0.00000000	          0.00000000	          0.00000000	
          0.63600000	         72.83181697	        137.96824090	         14.28519583	         -0.73065554	          0.00000000	          0.06202665	          0.00000000	          0.00000000	          0.00000000	          0.00000000	          0.00000000	          0.00000000	          0.00000000	          0.50267642	          0.00000000	          0.00000000	          0.00000000	          0.00000000	
          0.64000000	         52.49415803	        109.68233388	         12.15901324	         -0.72348097	          0.00000000	          0.06183452	          0.00000000	          0.00000000	          0.00000000	          0.00000000	          0.00000000	          0.00000000	          0.00000000	          0.61347440	          0.00000000	          0.00000000	          0.00000000	          0.00000000	
          0.64400000	         35.69040196	         84.71488978	          9.16674185	         -0.71691257	          0.00000000	          0.06179562	          0.00000000	          0.00000000	          0.00000000	          0.00000000	          0.00000000	          0.00000000	          0.00000000	          0.59561910	          0.00000000	          0.00000000	          0.00000000	          0.00000000	
